<?xml version="1.0" encoding="utf-8"?>
<!-- Generator: Adobe Illustrator 26.5.0, SVG Export Plug-In . SVG Version: 6.00 Build 0)  -->
<svg version="1.1" id="Layer_1" xmlns="http://www.w3.org/2000/svg" xmlns:xlink="http://www.w3.org/1999/xlink" x="0px" y="0px"
	 viewBox="0 0 595.28 841.89" style="enable-background:new 0 0 595.28 841.89;" xml:space="preserve">
<path d="M553.83,621.94c-0.64,0.3-1.34,0.68-2.13,1.14C552.62,622.84,553.32,622.44,553.83,621.94z"/>
<path d="M539.65,599.37c-1.83,5.19,6.24-9.21-3.69-4.52c-0.51,0.5-1.21,0.9-2.13,1.14c0.79-0.47,1.5-0.84,2.13-1.14
	c4.32-4.19-4.67-15.9-5.57-11.59c-2.61-10.98-6.07-4.27-6.77-8.95c-30.5-50.48,16.46-35.09-41.44-87.23
	c-11.16-14.25-76.07-53.07-65.56-53.65c26.26,8.46,123.88,78.58,92.02,42.36c-50.62-37.56-58.88-45.04-95.13-57.84
	c-42.59-14.99-100.01,28.33-153.51,29.58c-33.59,7.31-48.09,44.22-66.82,77.14c-9.58,17.54-9.58,59.39-12.89,67.07
	c-4.02,3.15,5.89,2.89-0.5,10.59c-2.9,3.31-7.45,2.37-12.01,2.21c3.97,2.77-0.46,4.87-1.26-0.14
	c-35.92-12.72-82.79-75.47-70.62-119.43c0.46-9.71-18.45-46.48-10.16-67.06c0.08-11.62,0.82-25.1,6.78-35.43
	c-4.37-7.04-12.92-12.14-14.29-21.2c-21.19-19.68,23.33,11.84,24.88-1.97c27.36-36.25,48.9-48.44,79.06-49
	c18.61-6.3,27.35-1.92,50.77-3.48c12.57,2.51,8.29-5.29,11.66-10.87c6.14-9.05,36.49-19.48,10.97-17.75
	c-64.85-4.76-164.82-6.56-168.86,39.31c-8.85-9.87-20.86,18.1-19.89,23.87c-8.18,4.26,7.32,10.2-0.39,15.9
	c-8.68-7.96-12.45,14.82-16.67,20.76c5.54,2.38,14.62,5.05,7.69,10.68c-2.34,12.23-2.75,14.99-9.91,12.69
	c-0.03,2.96,1.24,4.21,3.14,6.21c-6.51,1-2.29,3.94-3.72,8.88c0.46,22.35,12.02,53.85-0.34,76.31c0.01-0.01,0.02-0.01,0.04-0.02
	c0.01-0.01,0.02-0.02,0.02-0.04c0,0.01-0.01,0.02-0.01,0.03c10.27-4.76-2.76,7.98,0,0c-0.01,0-0.01,0-0.02,0.01
	c-6.02,8.76-2.34,9.53,3.77,8.54c-3.27,7.09-1.56,10.93-6.95,14.43c2.38,4.47,0.23,7.07,1.43,18.4
	c23.52,61.97,22.83,42.06,82.65,82.51c16.95,52.12,57.43,24.59,110.16,58.12c4.34,19.18-47.7,2.74-62.66,8.69
	c14.03,3.8,23.45,6.58,30.04,17.57c4.22,11.68,16.7,22.13,21.72,34.46c14.21,8.25,112.46,11.79,93.31-11.78
	c45.03-3.47,81.81,3.19,30.21-24.42c-42.19-13.37,21.15-19.28,52.56-28.01c67.95-11.91,113.19-32.92,137.37-69.82
	C536.45,603.63,535.01,597.86,539.65,599.37z M263.34,507.33c-7-26,175.79-11.43,145.79-12.43c-3,0-7-4-11-5c-17-2-34,3-50-3
	c-6-2-12-6-19-5c7-1,13,3,19,5c16,6,33,1,50,3c4,1,8,5,11,5c30,1,19.32,32.56,26.32,58.56c5,22,25.49,45.28,1.49,54.28
	c-35,13-80.81,40.16-117.81,47.16c-39,6-57-17-83-52c-12-16,6.72-41,15.72-61c18-38,43.28-64,86.28-56
	c-43-8-99.43,1.57-117.43,39.57c-9,20,3.43,61.43,15.43,77.43c26,35-38-55,1-61"/>
<path d="M64.54,519.87c-0.01,0.01-0.02,0.02-0.02,0.04c0.01,0,0.01,0,0.02-0.01C64.54,519.89,64.54,519.88,64.54,519.87z"/>
<path d="M473.82,299.99c0.5,21.3,26.73,47.36-24.56,67.69c-33.5,5.85-71.1-45.18-115.28-42.24c-75.7,2.09-50.13-35.63-110.5-4.46
	c39.8-25.84,30.04-50.05,57.1-50.39c3.51,3.83,21.84-13.93,12.92-7.59c-2.06-0.25-0.09-2.52,0.81-3.44
	c-15.76-5.81-51.35-0.09-43.47-30.94c6.34-9.22,17.17-0.96,26.37-3.07c9.98-5.17,11.78-1.14,6.29,6.74
	c8.62-10.81,6.27-17.84,24.58-17.28c-1.63-11.28-36.82,13.69-1.21-19.93c0.77-8.18-13.69-11.41-6.2-19.67
	c4.75-7.45-14.43-3.11-9.83-19.37c48.75-13.95-56.66,12.88-12.94-57.5c-13.73-26.17-43.03-18.84-67.16-40.41
	c-12.16-29.23,55.73-4.41,73.91,4.6c21.36,9.23,66.19-16.13,84.11,1.67c21.5,17.58-26.76-3.24-3.59,11.66
	c27.51,30.77-105.5-64.64-47.13,36.06c8.22,15.2,5.14,29.27,25.94,30.38c60.02,5.8,78.97,46.94,118.41,92.45
	C480.4,250.87,471.49,285.14,473.82,299.99z M391.79,300.04c19.09,10.19,46.8,36.58,45.12,24.94c-9.99-9.51-15.95-25.75-24.62-30.9
	c3.14-9.89-14.83-8.82,0.55-25.71c1.72-5.38,6.64-10.18,7.22-15.06c9.07,5.4,24.25-13.11,24.41-3.96c5.8-3.41,1.41,4.85-2.67,1.12
	c3.05,1.8-4.44,6.33-7.07,9.7c12.25,14.05,14.48-3.66,17.68-6.41c1.58-5.57-1.68-2.21-4.48-7.33c4.11-1.38,0.25-5.31-1.67-5.67
	c-6.81,0.95-18.2,8.24-26.74,10.04c-24.9-1.2-12.74-1.2-35.28,13.79c-39.09,10.89-44.99-36.79-53-15.02
	c5.97,6.18-17.18-2-31.5,18.46c18.41,9.39,56.59,17.85,54.04,11.26c2.71,3.2,28.33,16.95,27.82,12.74c6.14-5.3,14.27,8.78,1.58,0.32
	C386.53,298.86,391.56,293.07,391.79,300.04z M320.9,181.6c14.13,29.68,18.31,5.86,4.17-8.26c2.47-4.71,6.51-9.24,5.43-14.34
	c7.09,3.5,6.94-9.32,1.88-7.06c6.79,8.94-11.08-1.28-1.03,2.12c-7.31-11.85-1.39,8.26-5.91,5.39
	C314.71,163.85,307.53,166.08,320.9,181.6z M282.66,105.01c-6.47,10.03,10.25,44.27,20.63,31.02
	C296.22,126.43,293.82,109.67,282.66,105.01z M320.4,219.8c-11.78,4.96-4.18,22.01,5.47,11.6
	C329.76,222.1,321.99,224.06,320.4,219.8z M314.47,214.94c1.21-5.37-3.23-5.72-4.21-0.86C312.24,213.24,313.03,212.7,314.47,214.94z
	 M310.06,169.25c0.78-3.53-7.33-0.76-2.29,1.61C308.52,169.02,308.5,168.13,310.06,169.25z M335.7,233.99
	c-1.5,0.96,1.76,3.16,2.32,4.69C340.39,235.3,335.7,235.97,335.7,233.99z"/>
</svg>
